<?xml version="1.0" encoding="utf-8"?>
<!-- Generator: Adobe Illustrator 26.3.1, SVG Export Plug-In . SVG Version: 6.00 Build 0)  -->
<svg version="1.1" id="Layer_1" xmlns="http://www.w3.org/2000/svg" xmlns:xlink="http://www.w3.org/1999/xlink" x="0px" y="0px"
	 viewBox="0 0 16.7 16" style="enable-background:new 0 0 16.7 16;" xml:space="preserve">
<style type="text/css">
	.st0{fill-rule:evenodd;clip-rule:evenodd;fill:#6D6D6D;}
	.st1{fill:#6D6D6D;}
</style>
<path class="st0" d="M16.7,4.5V14c0,1.1-0.9,2-2,2h-1v-1h1c0.6,0,1-0.4,1-1V4.5h-2c-0.8,0-1.5-0.7-1.5-1.5V1H6.7c-0.6,0-1,0.4-1,1v4
	h-1V2c0-1.1,0.9-2,2-2h5.5L16.7,4.5z"/>
<g>
	<path class="st1" d="M5.7,12.7l1,0.3c-0.2,0.8-0.6,1.4-1.1,1.9c-0.5,0.4-1.2,0.6-2,0.6s-1.5-0.2-2-0.5s-0.9-0.8-1.2-1.4
		C0.1,13,0,12.3,0,11.6c0-0.8,0.1-1.5,0.5-2.1c0.3-0.6,0.7-1,1.3-1.3S3,7.7,3.6,7.7c0.8,0,1.4,0.2,1.9,0.6s0.9,0.9,1.1,1.6l-1,0.2
		C5.4,9.6,5.1,9.2,4.8,8.9C4.5,8.7,4,8.6,3.5,8.6S2.5,8.7,2.1,9s-0.7,0.6-0.8,1.1c-0.2,0.5-0.2,1-0.2,1.4c0,0.6,0.1,1.2,0.3,1.7
		s0.5,0.8,0.9,1.1c0.4,0.2,0.8,0.4,1.3,0.4c0.6,0,1-0.2,1.4-0.5C5.3,13.9,5.5,13.4,5.7,12.7z"/>
	<path class="st1" d="M10,15.4L7.1,7.8h1.1l2,5.5c0.2,0.4,0.3,0.9,0.4,1.2c0.1-0.4,0.3-0.8,0.4-1.2l2-5.5h1l-3,7.5L10,15.4L10,15.4z
		"/>
</g>
</svg>
